<?xml version="1.0" encoding="UTF-8"?>
<svg version="1.1" xmlns="http://www.w3.org/2000/svg" width="500" height="500">
<path d="M0 0 C165 0 330 0 500 0 C500 165 500 330 500 500 C335 500 170 500 0 500 C0 335 0 170 0 0 Z " fill="#FEFEFE" transform="translate(0,0)"/>
<path d="M0 0 C37.95 0 75.9 0 115 0 C114.34540947 5.89131477 113.60950489 11.51399411 112.40625 17.28125 C112.25466431 18.02080933 112.10307861 18.76036865 111.94689941 19.52233887 C111.62952262 21.06543545 111.31013021 22.60811879 110.98876953 24.15039062 C110.49564331 26.52094344 110.01111442 28.89314724 109.52734375 31.265625 C109.21665252 32.770938 108.90547273 34.27615027 108.59375 35.78125 C108.44893188 36.49156372 108.30411377 37.20187744 108.15490723 37.93371582 C107.11507724 42.88492276 107.11507724 42.88492276 106 44 C103.1156618 44.08865208 100.25537842 44.11521296 97.37109375 44.09765625 C96.07474754 44.09553383 96.07474754 44.09553383 94.75221252 44.09336853 C91.98060708 44.08775239 89.2090812 44.07519719 86.4375 44.0625 C84.5631522 44.05748708 82.68880315 44.05292381 80.81445312 44.04882812 C76.20960456 44.03777772 71.60481579 44.0205023 67 44 C67.56745163 39.2982579 68.2204081 34.67755138 69 30 C63.72 30 58.44 30 53 30 C52.505 34.95 52.505 34.95 52 40 C50.35 47.26 48.7 54.52 47 62 C63.5 62 80 62 97 62 C85.87846289 70.89722968 74.48211151 79.33962666 62.90014648 87.62475586 C61.56952265 88.58780405 60.27627578 89.6036524 59.01489258 90.65576172 C56.72230003 92.1852679 55.61021576 92.35477763 52.890625 92.29296875 C52.13652344 92.28330078 51.38242188 92.27363281 50.60546875 92.26367188 C49.82816406 92.23853516 49.05085938 92.21339844 48.25 92.1875 C47.45722656 92.17396484 46.66445312 92.16042969 45.84765625 92.14648438 C43.89814436 92.11125223 41.94898374 92.05744821 40 92 C39.83129395 93.07967041 39.83129395 93.07967041 39.65917969 94.18115234 C38.44521497 101.72889892 36.93904873 109.17048035 35.25 116.625 C34.9926709 117.77202393 34.7353418 118.91904785 34.47021484 120.10083008 C31.69992222 132.41277565 28.85254306 144.70689778 26 157 C12.8 157 -0.4 157 -14 157 C-9.89229392 136.46146961 -5.59504425 115.99710398 -0.89208984 95.58764648 C-0.55172064 94.11052289 -0.21138803 92.63339086 0.12890625 91.15625 C0.37574158 90.08486534 0.37574158 90.08486534 0.62756348 88.99183655 C2.15452665 82.3517593 3.63123025 75.70183093 5.05126953 69.03808594 C6.18801064 63.70510777 7.3634028 58.38286262 8.57809448 53.06716919 C9.34874381 49.68490448 10.10731262 46.29997963 10.86474609 42.91473389 C11.24409813 41.23259222 11.62863565 39.5516109 12.01855469 37.87188721 C12.5664016 35.50859019 13.09557222 33.14178404 13.62109375 30.7734375 C13.79051987 30.06298279 13.95994598 29.35252808 14.13450623 28.62054443 C15.04764098 24.40164724 15.11462777 21.80096572 13 18 C11.5975016 16.16429746 10.13378683 14.37439071 8.625 12.625 C5.04267397 8.46758484 2.81260772 4.92206352 0 0 Z " fill="#1891C8" transform="translate(119,146)"/>
<path d="M0 0 C13.2 0 26.4 0 40 0 C40.06277377 31.45750618 39.83887386 62.90808644 39.55461788 94.36412776 C39.49277025 101.21607975 39.43295018 108.06804907 39.37324238 114.92001998 C39.25097198 128.94669947 39.12607317 142.97335419 39 157 C24.48 157 9.96 157 -5 157 C-5.33 151.72 -5.66 146.44 -6 141 C-9.00576327 136.99231563 -11.38942928 134.2459854 -15 131 C-16.18798908 129.68562911 -17.35631222 128.3530954 -18.5 127 C-21.13689636 123.97245233 -23.81016569 120.98062721 -26.5 118 C-29.36422724 114.82134644 -32.22589825 111.6408543 -35.0625 108.4375 C-35.63097656 107.79683594 -36.19945312 107.15617187 -36.78515625 106.49609375 C-38 105 -38 105 -38 104 C-26.12 104 -14.24 104 -2 104 C-2 83.54 -2 63.08 -2 42 C-3.98 46.62 -5.96 51.24 -8 56 C-21.53 56 -35.06 56 -49 56 C-48.01 53.03 -48.01 53.03 -47 50 C-34.79 50 -22.58 50 -10 50 C-9.505 45.05 -9.505 45.05 -9 40 C-8.61370502 37.93303131 -8.18515789 35.87302961 -7.6953125 33.828125 C-7.44136719 32.75046875 -7.18742187 31.6728125 -6.92578125 30.5625 C-6.66152344 29.469375 -6.39726562 28.37625 -6.125 27.25 C-3.9675064 18.18635856 -1.95297113 9.11386526 0 0 Z " fill="#010101" transform="translate(240,146)"/>
<path d="M0 0 C0.495 0.99 0.495 0.99 1 2 C0.18310547 4.42333984 0.18310547 4.42333984 -1.1328125 7.4609375 C-1.60976562 8.57339844 -2.08671875 9.68585938 -2.578125 10.83203125 C-3.34382813 12.58580078 -3.34382813 12.58580078 -4.125 14.375 C-5.10707385 16.65351525 -6.08884612 18.93216051 -7.0703125 21.2109375 C-7.51133301 22.22462402 -7.95235352 23.23831055 -8.40673828 24.28271484 C-10.64491464 29.50466906 -12.81484841 34.75563619 -15 40 C-24.24 40.33 -33.48 40.66 -43 41 C-40.7725 43.413125 -40.7725 43.413125 -38.5 45.875 C-37.11493583 47.40193428 -35.73854944 48.93607899 -34.36474609 50.47314453 C-33.08780593 51.90176417 -31.8039186 53.3241657 -30.51953125 54.74609375 C-29.79121094 55.59300781 -29.06289062 56.43992187 -28.3125 57.3125 C-27.64863281 58.07175781 -26.98476562 58.83101563 -26.30078125 59.61328125 C-24.52213685 62.87679995 -25.16834979 64.4008705 -26 68 C-26.92599035 70.49894574 -27.88744124 72.92462629 -28.94140625 75.3671875 C-29.19595581 75.97054932 -29.45050537 76.57391113 -29.71276855 77.19555664 C-30.65558473 79.42505115 -31.60969249 81.6497571 -32.5625 83.875 C-34.686875 88.86625 -36.81125 93.8575 -39 99 C-52.2 99 -65.4 99 -79 99 C-77.87491084 87.74910842 -77.87491084 87.74910842 -75.37109375 81.4609375 C-75.10654892 80.78799652 -74.84200409 80.11505554 -74.56944275 79.42172241 C-74.00861128 78.00009724 -73.44214733 76.58068221 -72.87030029 75.16345215 C-72.00029824 73.00074138 -71.15230714 70.83050225 -70.30908203 68.65722656 C-68.8932498 65.02373591 -67.43402437 61.41002629 -65.95043945 57.80371094 C-65.3499599 56.33033191 -64.76005196 54.85260712 -64.17993164 53.37109375 C-63.3231206 51.18692594 -62.43326417 49.01901963 -61.53515625 46.8515625 C-61.28387466 46.19024323 -61.03259308 45.52892395 -60.7736969 44.8475647 C-59.98461914 43.00244141 -59.98461914 43.00244141 -58 40 C-54.50097656 38.71948242 -54.50097656 38.71948242 -51 38 C-49.02934465 36.94762607 -49.02934465 36.94762607 -47.44921875 35.63671875 C-46.84271484 35.16878906 -46.23621094 34.70085937 -45.61132812 34.21875 C-44.97646484 33.7134375 -44.34160156 33.208125 -43.6875 32.6875 C-42.27600654 31.59601587 -40.8631961 30.50623316 -39.44921875 29.41796875 C-38.72009277 28.85384277 -37.9909668 28.2897168 -37.23974609 27.70849609 C-33.54970884 24.89370639 -29.77422037 22.20023865 -26 19.5 C-19.9338637 15.14268086 -13.91200803 10.73223272 -7.9375 6.25 C-6.90979492 5.47946289 -6.90979492 5.47946289 -5.86132812 4.69335938 C-2.81727145 2.48090596 -2.81727145 2.48090596 0 0 Z " fill="#030303" transform="translate(230,204)"/>
<path d="M0 0 C1.99023038 1.99023038 2.56144613 3.15783215 3.625 5.6875 C10.07475472 18.51790493 26.95619486 24.63317651 39.3125 30.5 C50.83130462 36.1991995 60.15885812 43.31771623 66 55 C66.124558 57.82428021 66.18516772 60.61310525 66.1875 63.4375 C66.19974609 64.21416016 66.21199219 64.99082031 66.22460938 65.79101562 C66.23474195 69.71232309 66.2225417 71.66618745 64 75 C63.85304688 74.38253906 63.70609375 73.76507813 63.5546875 73.12890625 C59.2502968 56.87612067 47.92958572 48.21015317 34 40 C31.3475151 38.4870709 28.68639927 36.99019961 26.02368164 35.49536133 C3.02688732 22.57902082 3.02688732 22.57902082 -1 14 C-2.20418511 8.91163888 -2.59267503 4.72781917 0 0 Z " fill="#27AADB" transform="translate(297,268)"/>
<path d="M0 0 C1.26660973 1.8999146 2.48265955 3.83537229 3.625 5.8125 C10.1160105 14.52411935 20.4667851 18.4047447 30 23 C60.35924772 37.71377953 60.35924772 37.71377953 65.5 50.25 C67.47576058 56.51823159 68.67713369 64.15283454 65.9765625 70.34765625 C65.65429688 70.89292969 65.33203125 71.43820312 65 72 C64.78085937 71.154375 64.56171875 70.30875 64.3359375 69.4375 C60.7310792 56.54207193 54.85942021 49.20625685 43.29125977 42.40820312 C40.42293978 40.87365566 37.53378322 39.39382051 34.625 37.9375 C32.67915187 36.94766683 30.73383766 35.95678336 28.7890625 34.96484375 C27.83491455 34.47822266 26.8807666 33.99160156 25.89770508 33.49023438 C3.10794795 21.76989757 3.10794795 21.76989757 -1.5234375 10.9921875 C-2.37988484 7.41195683 -1.81414484 4.56971199 -1 1 C-0.67 0.67 -0.34 0.34 0 0 Z " fill="#26A9DA" transform="translate(301,259)"/>
<path d="M0 0 C2 2 2 2 2.1171875 3.953125 C1.21130462 12.54440135 -2.68644537 17.33229416 -9.14453125 22.86328125 C-17.8955175 29.41155687 -27.90080615 34.11340131 -37.8125 38.625 C-38.58327881 38.98013672 -39.35405762 39.33527344 -40.14819336 39.70117188 C-45.63664035 42.12111988 -45.63664035 42.12111988 -49 41 C-49.33 39.02 -49.66 37.04 -50 35 C-44.9933312 31.6622208 -39.84131167 28.88649536 -34.4375 26.25 C-13.74291654 16.83226351 -13.74291654 16.83226351 0 0 Z " fill="#9A9A9A" transform="translate(354,222)"/>
<path d="M0 0 C0.66 0.33 1.32 0.66 2 1 C3.03260998 12.47344422 3.03260998 12.47344422 -0.5625 17.375 C-1.67024949 18.61834007 -2.81589805 19.82914303 -4 21 C-4.48339844 21.50789063 -4.96679688 22.01578125 -5.46484375 22.5390625 C-11.07517729 27.87815854 -18.19973962 31.41168329 -25 35 C-25.66789551 35.35368652 -26.33579102 35.70737305 -27.02392578 36.07177734 C-29.02500184 37.11513065 -31.03916196 38.12560122 -33.0625 39.125 C-33.68125 39.44460693 -34.3 39.76421387 -34.9375 40.09350586 C-37.8678313 41.49174518 -39.53863371 42.10631769 -42.74609375 41.3671875 C-44.85543577 40.08769061 -46.39277592 38.8609963 -48 37 C-42.92409972 33.61606648 -37.72671404 30.84487109 -32.25 28.1875 C-25.05809244 24.66633136 -18.48813482 20.72225103 -12 16 C-11.30132812 15.51015625 -10.60265625 15.0203125 -9.8828125 14.515625 C-4.81709308 10.64567626 -2.4818057 5.78706767 0 0 Z " fill="#959595" transform="translate(357,230)"/>
<path d="M0 0 C0.99 1.98 1.98 3.96 3 6 C3.99 4.02 4.98 2.04 6 0 C7.98 0 9.96 0 12 0 C12 5.94 12 11.88 12 18 C10.02 18 8.04 18 6 18 C5.67 17.34 5.34 16.68 5 16 C4.67 16.66 4.34 17.32 4 18 C3.34 18 2.68 18 2 18 C1.34 16.68 0.68 15.36 0 14 C-0.33 15.32 -0.66 16.64 -1 18 C-2.98 18 -4.96 18 -7 18 C-7 12.39 -7 6.78 -7 1 C-4.53721199 -0.231394 -2.7204945 -0.07159196 0 0 Z " fill="#111111" transform="translate(254,319)"/>
<path d="M0 0 C3.30470735 0.05681445 4.92362922 0.17135982 7.875 1.75 C9.89284494 5.68960202 9.40291704 9.12777297 8.1875 13.3125 C5.94160675 16.30702434 4.73880633 17.12873122 1.1875 18.3125 C-1.14549825 18.35204234 -3.47958189 18.35651732 -5.8125 18.3125 C-5.83934312 15.49993719 -5.85926188 12.68762759 -5.875 9.875 C-5.88337891 9.07255859 -5.89175781 8.27011719 -5.90039062 7.44335938 C-5.9090143 5.39954779 -5.8647815 3.35566098 -5.8125 1.3125 C-4.16284831 -0.33715169 -2.2648645 0.06300502 0 0 Z " fill="#2698CB" transform="translate(296.8125,318.6875)"/>
<path d="M0 0 C2.81151012 0.05372312 4.6091707 0.21943247 7.25 1.25 C9.51248127 4.39780003 9.27582172 7.57657655 8.6875 11.25 C7.34385159 14.50304353 6.43182243 15.82754673 3.375 17.5625 C0.38780367 18.3266665 -2.24076805 18.29660559 -5.3125 18.25 C-5.33934312 15.43743719 -5.35926188 12.62512759 -5.375 9.8125 C-5.38337891 9.01005859 -5.39175781 8.20761719 -5.40039062 7.38085938 C-5.4090143 5.33704779 -5.3647815 3.29316098 -5.3125 1.25 C-3.74272426 -0.31977574 -2.17053613 0.04262919 0 0 Z " fill="#1F94C9" transform="translate(312.3125,318.75)"/>
<path d="M0 0 C2.31 0 4.62 0 7 0 C11.59225513 11.52164009 11.59225513 11.52164009 11 17 C7.7 16.67 4.4 16.34 1 16 C1 16.66 1 17.32 1 18 C-0.98 18 -2.96 18 -5 18 C-4.35702496 15.37426939 -3.71075589 12.74942697 -3.0625 10.125 C-2.88009766 9.37863281 -2.69769531 8.63226563 -2.50976562 7.86328125 C-1.11328125 2.2265625 -1.11328125 2.2265625 0 0 Z " fill="#2698CB" transform="translate(327,319)"/>
<path d="M0 0 C2.31 0 4.62 0 7 0 C7.83919398 2.26882087 8.67151724 4.53977027 9.5 6.8125 C9.73847656 7.45509766 9.97695313 8.09769531 10.22265625 8.75976562 C11.27068746 11.64933739 12 13.90076061 12 17 C8.37 16.67 4.74 16.34 1 16 C1 16.66 1 17.32 1 18 C-0.65 18 -2.3 18 -4 18 C-3.31195504 11.80759538 -1.71951285 5.98044406 0 0 Z " fill="#2597CB" transform="translate(278,319)"/>
<path d="M0 0 C0.66 0 1.32 0 2 0 C1.65749142 5.48013722 -1.37288888 9.13618681 -5 13 C-16.70824715 23.28353064 -31.05896887 30.26711565 -45 37 C-42.69 38.65 -40.38 40.3 -38 42 C-38.66 42.99 -39.32 43.98 -40 45 C-51.00007396 37.23053029 -51.00007396 37.23053029 -52.8125 31.375 C-53 29 -53 29 -52 26 C-51.34 26.33 -50.68 26.66 -50 27 C-49.375 30.0625 -49.375 30.0625 -49 33 C-32.27874641 27.79882576 -12.4658991 19.70883117 -2 5 C-0.62949404 2.25452126 -0.62949404 2.25452126 0 0 Z " fill="#F0F1F2" transform="translate(355,230)"/>
<path d="M0 0 C0.6496875 0.87205078 0.6496875 0.87205078 1.3125 1.76171875 C9.86919722 13.11122687 20.30212697 18.86394271 33 24.9375 C45.95773478 31.29408724 57.14154347 37.6630849 65 50.1875 C66.49099454 55.87191667 65.72154197 61.21897096 65 67 C64.67 67 64.34 67 64 67 C63.99742187 66.17757812 63.99484375 65.35515625 63.9921875 64.5078125 C63.66274982 54.99804472 61.69349901 48.65905131 54.87109375 41.88671875 C45.9001182 34.27542977 35.25576178 29.07020885 24.75 23.9375 C15.86980024 19.57472056 6.34550312 14.70383035 1 6 C0.125 2.5625 0.125 2.5625 0 0 Z " fill="#E7F4FA" transform="translate(299,269)"/>
<path d="M0 0 C3.96 0 7.92 0 12 0 C12 1.32 12 2.64 12 4 C9.69 4 7.38 4 5 4 C5 4.99 5 5.98 5 7 C8.465 6.505 8.465 6.505 12 6 C12 7.65 12 9.3 12 11 C9.69 11 7.38 11 5 11 C5 13.31 5 15.62 5 18 C3.35 18 1.7 18 0 18 C0 12.06 0 6.12 0 0 Z " fill="#090909" transform="translate(214,319)"/>
<path d="M0 0 C1.65 0 3.3 0 5 0 C5 3.96 5 7.92 5 12 C7.31 12 9.62 12 12 12 C12 13.65 12 15.3 12 17 C9 18 9 18 0 18 C0 12.06 0 6.12 0 0 Z " fill="#111111" transform="translate(234,319)"/>
<path d="M0 0 C1.65 0 3.3 0 5 0 C5 5.94 5 11.88 5 18 C3.02 18 1.04 18 -1 18 C-1.02684312 15.18743719 -1.04676188 12.37512759 -1.0625 9.5625 C-1.07087891 8.76005859 -1.07925781 7.95761719 -1.08789062 7.13085938 C-1.0965143 5.08704779 -1.0522815 3.04316098 -1 1 C-0.67 0.67 -0.34 0.34 0 0 Z " fill="#191919" transform="translate(228,319)"/>
<path d="M0 0 C6.00009233 2.59784217 9.60255389 7.77282027 13 13.1875 C14.49099454 18.87191667 13.72154197 24.21897096 13 30 C12.67 30 12.34 30 12 30 C11.99613281 28.76636719 11.99613281 28.76636719 11.9921875 27.5078125 C11.67778651 18.43210406 9.81100301 11.80014296 3.26953125 5.2734375 C1.50819057 3.73583275 1.50819057 3.73583275 -1 2 C-0.67 1.34 -0.34 0.68 0 0 Z " fill="#D2F4FD" transform="translate(351,306)"/>
<path d="M0 0 C1.32 0.33 2.64 0.66 4 1 C4.625 2.875 4.625 2.875 5 5 C4.34 5.66 3.68 6.32 3 7 C2.01 7 1.02 7 0 7 C0 4.69 0 2.38 0 0 Z " fill="#E2F1F8" transform="translate(296,324)"/>
<path d="M0 0 C1.32 0.33 2.64 0.66 4 1 C4 2.65 4 4.3 4 6 C2.68 6.33 1.36 6.66 0 7 C0 4.69 0 2.38 0 0 Z " fill="#EEF7FB" transform="translate(312,324)"/>
<path d="M0 0 C0.66 0.33 1.32 0.66 2 1 C1.34 2.65 0.68 4.3 0 6 C-2.31 6.33 -4.62 6.66 -7 7 C-7 6.01 -7 5.02 -7 4 C-4.69 4 -2.38 4 0 4 C0 2.68 0 1.36 0 0 Z " fill="#BCBCBC" transform="translate(226,319)"/>
<path d="M0 0 C1.98 0.495 1.98 0.495 4 1 C3.67 2.32 3.34 3.64 3 5 C1.68 5 0.36 5 -1 5 C-0.67 3.35 -0.34 1.7 0 0 Z " fill="#222222" transform="translate(229,313)"/>
</svg>
